<?xml version="1.0" encoding="UTF-8" standalone="no"?>
<!-- Generator: Adobe Illustrator 23.0.6, SVG Export Plug-In . SVG Version: 6.00 Build 0)  -->

<svg
   xmlns:dc="http://purl.org/dc/elements/1.1/"
   xmlns:cc="http://creativecommons.org/ns#"
   xmlns:rdf="http://www.w3.org/1999/02/22-rdf-syntax-ns#"
   xmlns:svg="http://www.w3.org/2000/svg"
   xmlns="http://www.w3.org/2000/svg"
   xmlns:sodipodi="http://sodipodi.sourceforge.net/DTD/sodipodi-0.dtd"
   xmlns:inkscape="http://www.inkscape.org/namespaces/inkscape"
   height="1.85012in"
   gorn="0"
   width="3.17061in"
   id="Layer_1"
   viewBox="0 0 228.284 133.2086"
   y="0px"
   enable-background="new 0 0 228.284 133.2086"
   version="1.1"
   x="0px"
   xml:space="preserve"
   sodipodi:docname="Waveshare_2426e10d892e078e17bff3f060993080_18_breadboard.svg"
   inkscape:version="0.92.5 (2060ec1f9f, 2020-04-08)"><metadata
   id="metadata584"><rdf:RDF><cc:Work
       rdf:about=""><dc:format>image/svg+xml</dc:format><dc:type
         rdf:resource="http://purl.org/dc/dcmitype/StillImage" /><dc:title /></cc:Work></rdf:RDF></metadata><defs
   id="defs582">
        
        
        
    
            
            
        
            
        
                
                
                
                
                
                
                
                
                
                
                
                
                
                
                
                
                
                
                
            
                
            
                
                
                
                
                
                
                
            
                    
                
                    
                
                    
                
                    
                    
                    
                    
                    
                    
                    
                    
                    
                    
                    
                    
                    
                    
                    
                    
                    
                    
                    
                    
                    
                    
                    
                    
                    
                    
                    
                    
                    
                    
                    
                    
                    
                    
                    
                    
                    
                    
                    
                    
                    
                    
                    
                    
                    
                    
                    
                    
                    
                    
                    
                    
                    
                    
                    
                    
                    
                    
                    
                
                        
                        
                    
                        
                        
                    
                        
                        
                    
                        
                        
                    
                        
                        
                    
                        
                        
                    
                        
                        
                    
                        
                        
                    
                        
                        
                    
                        
                        
                    
                        
                        
                    
                        
                        
                    
                        
                        
                    
                        
                        
                    
                        
                        
                    
                        
                        
                    
                        
                        
                    
                        
                        
                    
                        
                        
                    
                        
                        
                    
                        
                        
                    
                        
                        
                    
                        
                        
                    
                        
                        
                    
                        
                        
                    
                        
                        
                    
                        
                        
                    
                        
                        
                    
                        
                        
                    
                        
                        
                    
                        
                        
                    
                        
                        
                    
                        
                        
                    
                        
                        
                    
                        
                        
                    
                        
                        
                    
                        
                        
                    
                        
                        
                    
                        
                        
                    
                        
                        
                    
                        
                        
                    
                        
                        
                    
                        
                        
                    
                        
                        
                    
                        
                        
                    
                        
                        
                    
                        
                        
                    
                        
                        
                    
                        
                        
                    
                        
                        
                    
                        
                        
                    
                        
                        
                    
                        
                        
                    
                        
                        
                    
                        
                        
                    
                        
                        
                    
                        
                        
                    
                        
                        
                    
                        
                    
                        
                    
                        
                    
                            
                            
                        
                            
                        
                            
                        
                            
                        
                            
                        
                            
                        
                            
                        
                            
                        
                            
                        
                            
                        
                            
                        
                            
                        
                            
                        
                            
                        
                            
                        
                            
                        
                            
                        
                            
                        
                            
                        
                            
                        
                            
                        
                            
                        
                            
                        
                            
                        
                            
                        
                            
                        
                            
                        
                            
                        
                            
                        
                            
                        
                            
                        
                            
                        
                            
                        
                            
                        
                            
                        
                            
                            
                            
                            
                            
                        
                            
                        
                            
                        
                            
                        
                            
                        
                            
                        
                            
                        
                            
                        
                            
                        
                            
                        
                            
                        
                            
                        
                            
                        
                            
                        
                            
                        
                            
                        
                            
                        
                            
                        
                            
                        
                            
                        
                            
                        
                            
                        
                            
                        
                            
                        
                                
                            
                                
                            
                                
                            
                                
                            
                                
                            
                                
                            
                                
                            
                                
                            
                                
                            
                                
                            
                                
                            
                                
                            
                                
                            
                                
                            
                                
                            
                                
                            
                                
                            </defs><sodipodi:namedview
   pagecolor="#ffffff"
   bordercolor="#666666"
   borderopacity="1"
   objecttolerance="10"
   gridtolerance="10"
   guidetolerance="10"
   inkscape:pageopacity="0"
   inkscape:pageshadow="2"
   inkscape:window-width="1920"
   inkscape:window-height="1177"
   id="namedview580"
   showgrid="false"
   inkscape:zoom="3.3510902"
   inkscape:cx="155.6111"
   inkscape:cy="75.675703"
   inkscape:window-x="1920"
   inkscape:window-y="0"
   inkscape:window-maximized="1"
   inkscape:current-layer="Layer_1" />
    <desc
   id="desc2">
        <referenceFile>2.9in eInk rev B_breadboard.svg</referenceFile>
    </desc>
    <desc
   id="desc4">Fritzing breadboard generated by brd2svg</desc>
    
<g
   id="g10640"><g
     id="g7158"><g
   id="g7117"
   transform="translate(-2.4618856,-149.43694)"><path
     d="m 10.786285,149.5126 c -3.7726003,-0.004 -6.8348003,3.0498 -6.8400003,6.8224 v 119.1956 c 0.002,3.9614 3.2096,7.174 7.1710003,7.182 H 223.54629 c 3.9764,0 7.2,-3.2235 7.2,-7.2 v -29.5204 l -5.04,-3.24 v -50.0396 l 5.04,-3.96 v -32.4 c -0.1988,-3.9764 -3.5836,-7.0388 -7.56,-6.84 H 10.786285 m 151.177295,126 c 0,0.7828 -0.6346,1.4173 -1.41729,1.4173 -0.78281,0 -1.41731,-0.6346 -1.41731,-1.4173 0,-0.7827 0.6346,-1.4173 1.41731,-1.4173 0.78279,0 1.41729,0.6345 1.41729,1.4173 z m -7.1996,0 c 0,0.7828 -0.6346,1.4173 -1.4173,1.4173 -0.7828,0 -1.4173,-0.6346 -1.4173,-1.4173 0,-0.7827 0.6346,-1.4173 1.4173,-1.4173 0.7828,0 1.4173,0.6345 1.4173,1.4173 z m -7.2,0 c 0,0.7828 -0.6346,1.4173 -1.4173,1.4173 -0.7828,0 -1.4173,-0.6346 -1.4173,-1.4173 0,-0.7827 0.6346,-1.4173 1.4173,-1.4173 0.7828,0 1.4173,0.6345 1.4173,1.4173 z m -7.2,0 c 0,0.7828 -0.6346,1.4173 -1.4173,1.4173 -0.7828,0 -1.4173,-0.6346 -1.4173,-1.4173 0,-0.7827 0.6346,-1.4173 1.4173,-1.4173 0.7828,0 1.4173,0.6345 1.4173,1.4173 z m -7.2,0 c 0,0.7828 -0.6346,1.4173 -1.4173,1.4173 -0.7828,0 -1.4173,-0.6346 -1.4173,-1.4173 0,-0.7827 0.6346,-1.4173 1.4173,-1.4173 0.7828,0 1.4173,0.6345 1.4173,1.4173 z m -7.1997,0 c 0,0.7828 -0.6346,1.4173 -1.4173,1.4173 -0.7828,0 -1.4173,-0.6346 -1.4173,-1.4173 0,-0.7827 0.6346,-1.4173 1.4173,-1.4173 0.7828,0 1.4173,0.6345 1.4173,1.4173 z m -7.2,0 c 0,0.7828 -0.6346,1.4173 -1.4173,1.4173 -0.7828,0 -1.4173,-0.6346 -1.4173,-1.4173 0,-0.7827 0.6346,-1.4173 1.4173,-1.4173 0.7828,0 1.4173,0.6345 1.4173,1.4173 z m -7.2,0 c 0,0.7828 -0.6346,1.4173 -1.4173,1.4173 -0.7828,0 -1.4173,-0.6346 -1.4173,-1.4173 0,-0.7827 0.6346,-1.4173 1.4173,-1.4173 0.7828,0 1.4173,0.6345 1.4173,1.4173 z m -7.2,0 c 0,0.7828 -0.6346,1.4173 -1.4173,1.4173 -0.7827,0 -1.4173,-0.6346 -1.4173,-1.4173 v 0 c 0,-0.7828 0.6346,-1.4173 1.4173,-1.4173 0.7828,0 1.4173,0.6345 1.4173,1.4173 z m -7.199995,0 c 0,0.7828 -0.6346,1.4173 -1.4173,1.4173 -0.7827,0 -1.4173,-0.6346 -1.4173,-1.4173 v 0 c 0,-0.7828 0.6346,-1.4173 1.4173,-1.4173 0.7827,0 1.4173,0.6345 1.4173,1.4173 z m -7.2,0 c 0,0.7828 -0.6346,1.4173 -1.4173,1.4173 -0.7827,0 -1.4173,-0.6346 -1.4173,-1.4173 v 0 c 0,-0.7828 0.6346,-1.4173 1.4173,-1.4173 0.7827,0 1.4173,0.6345 1.4173,1.4173 z m -7.2,0 c 0,0.7828 -0.6346,1.4173 -1.4173,1.4173 -0.7827,0 -1.4173,-0.6346 -1.4173,-1.4173 v 0 c 0,-0.7828 0.6346,-1.4173 1.4173,-1.4173 0.7827,0 1.4173,0.6345 1.4173,1.4173 z m -7.2,0 c 0,0.7828 -0.6346,1.4173 -1.4173,1.4173 -0.7827,0 -1.4173,-0.6346 -1.4173,-1.4173 v 0 c 0,-0.7828 0.6346,-1.4173 1.4173,-1.4173 0.7827,0 1.4173,0.6345 1.4173,1.4173 z m 151.525405,0 c 0.003,1.9569 -1.5804,3.546 -3.5373,3.5493 -1.9569,0.003 -3.546,-1.5804 -3.5493,-3.5373 0,-0.004 0,-0.008 0,-0.012 -0.003,-1.9569 1.5804,-3.546 3.5374,-3.5493 1.9569,-0.003 3.546,1.5804 3.5493,3.5374 -1e-4,0.004 -1e-4,0.008 -1e-4,0.0119 z m -212.400405,0 c 0.003,1.9569 -1.5802,3.5461 -3.5371,3.5495 -1.9569003,0.003 -3.5461003,-1.5802 -3.5495003,-3.5371 0,-0.004 0,-0.008 0,-0.0125 -0.003,-1.9569 1.5802,-3.5461 3.5371003,-3.5495 1.9569,-0.003 3.5461,1.5802 3.5495,3.5371 0,0.004 0,0.008 0,0.0125 z m 212.400405,-118.8 c 0.003,1.9569 -1.5804,3.546 -3.5373,3.5493 -1.9569,0.003 -3.546,-1.5804 -3.5493,-3.5373 0,-0.004 0,-0.008 0,-0.012 -0.003,-1.9569 1.5804,-3.546 3.5374,-3.5493 1.9568,-0.003 3.5459,1.5805 3.5492,3.5374 0,0.004 0,0.008 0,0.0119 z m -212.400405,0 c 0.003,1.9569 -1.5802,3.5461 -3.5371,3.5495 -1.9569003,0.003 -3.5461003,-1.5802 -3.5495003,-3.5371 0,-0.004 0,-0.008 0,-0.0124 -0.003,-1.9569 1.5802,-3.5461 3.5371003,-3.5495 1.9569,-0.003 3.5461,1.5802 3.5495,3.5371 0,0.004 0,0.008 0,0.0124 z"
     id="path6"
     inkscape:connector-curvature="0"
     style="fill:#014cb1" /><path
     d="m 10.786285,282.71259 c -3.7726,0.004 -6.8348,-3.0498 -6.84,-6.8224 V 156.6946 c 0.002,-3.96141 3.2096,-7.174 7.171,-7.182 H 223.54628 c 3.9764,0 7.2,3.2235 7.2,7.2 v 29.5204 l -5.04,3.24 v 50.03959 l 5.04,3.96 v 32.4 c -0.1988,3.9764 -3.5836,7.0388 -7.56,6.84 H 10.786285 M 161.96359,156.7126 c 0,-0.78281 -0.63461,-1.41731 -1.41729,-1.41731 -0.78282,0 -1.41732,0.63461 -1.41732,1.41731 0,0.7827 0.6346,1.41729 1.41732,1.41729 0.78279,0 1.41729,-0.6345 1.41729,-1.41729 z m -7.19961,0 c 0,-0.78281 -0.6346,-1.41731 -1.4173,-1.41731 -0.7828,0 -1.4173,0.63461 -1.4173,1.41731 0,0.7827 0.6346,1.41729 1.4173,1.41729 0.7828,0 1.4173,-0.6345 1.4173,-1.41729 z m -7.2,0 c 0,-0.78281 -0.6346,-1.41731 -1.4173,-1.41731 -0.7828,0 -1.4173,0.63461 -1.4173,1.41731 0,0.7827 0.6346,1.41729 1.4173,1.41729 0.7828,0 1.4173,-0.6345 1.4173,-1.41729 z m -7.2,0 c 0,-0.78281 -0.6346,-1.41731 -1.4173,-1.41731 -0.78279,0 -1.41729,0.63461 -1.41729,1.41731 0,0.7827 0.63459,1.41729 1.41729,1.41729 0.7828,0 1.4173,-0.6345 1.4173,-1.41729 z m -7.2,0 c 0,-0.78281 -0.6346,-1.41731 -1.4173,-1.41731 -0.78279,0 -1.41729,0.63461 -1.41729,1.41731 0,0.7827 0.63459,1.41729 1.41729,1.41729 0.7828,0 1.4173,-0.6345 1.4173,-1.41729 z m -7.1997,0 c 0,-0.78281 -0.6346,-1.41731 -1.4173,-1.41731 -0.7828,0 -1.4173,0.63461 -1.4173,1.41731 0,0.7827 0.6346,1.41729 1.4173,1.41729 0.7828,0 1.4173,-0.6345 1.4173,-1.41729 z m -7.19999,0 c 0,-0.78281 -0.63461,-1.41731 -1.41731,-1.41731 -0.7828,0 -1.4173,0.63461 -1.4173,1.41731 0,0.7827 0.6346,1.41729 1.4173,1.41729 0.78281,0 1.41731,-0.6345 1.41731,-1.41729 z m -7.2,0 c 0,-0.78281 -0.63461,-1.41731 -1.41731,-1.41731 -0.7828,0 -1.4173,0.63461 -1.4173,1.41731 0,0.7827 0.6346,1.41729 1.4173,1.41729 0.78281,0 1.41731,-0.6345 1.41731,-1.41729 z m -7.2,0 c 0,-0.78281 -0.63461,-1.41731 -1.41731,-1.41731 -0.7827,0 -1.4173,0.63461 -1.4173,1.41731 v 0 c 0,0.78279 0.6346,1.41729 1.4173,1.41729 0.7828,0 1.41731,-0.6345 1.41731,-1.41729 z m -7.200006,0 c 0,-0.78281 -0.6346,-1.41731 -1.4173,-1.41731 -0.7827,0 -1.4173,0.63461 -1.4173,1.41731 v 0 c 0,0.78279 0.6346,1.41729 1.4173,1.41729 0.7827,0 1.4173,-0.6345 1.4173,-1.41729 z m -7.2,0 c 0,-0.78281 -0.6346,-1.41731 -1.4173,-1.41731 -0.7827,0 -1.4173,0.63461 -1.4173,1.41731 v 0 c 0,0.78279 0.6346,1.41729 1.4173,1.41729 0.7827,0 1.4173,-0.6345 1.4173,-1.41729 z m -7.199997,0 c 0,-0.78281 -0.634606,-1.41731 -1.417306,-1.41731 -0.7827,0 -1.417297,0.63461 -1.417297,1.41731 v 0 c 0,0.78279 0.634597,1.41729 1.417297,1.41729 0.7827,0 1.417306,-0.6345 1.417306,-1.41729 z m -7.200003,0 c 0,-0.78281 -0.6346,-1.41731 -1.4173,-1.41731 -0.7827,0 -1.4173,0.63461 -1.4173,1.41731 v 0 c 0,0.78279 0.6346,1.41729 1.4173,1.41729 0.7827,0 1.4173,-0.6345 1.4173,-1.41729 z m 151.525396,0 c 0.003,-1.9569 -1.5804,-3.546 -3.5373,-3.5493 -1.9569,-0.003 -3.546,1.5804 -3.5493,3.5373 0,0.004 0,0.008 0,0.012 -0.003,1.9569 1.5804,3.546 3.5374,3.5493 1.9569,0.003 3.546,-1.5804 3.5493,-3.53741 -1e-4,-0.004 -1e-4,-0.008 -1e-4,-0.0119 z m -212.400395,0 c 0.003,-1.9569 -1.5802,-3.5461 -3.5371,-3.54951 -1.9569001,-0.003 -3.5461,1.5802 -3.5495,3.5371 0,0.004 0,0.008 0,0.0125 -0.003,1.9569 1.5801999,3.54609 3.5371,3.5495 1.9569,0.003 3.5461,-1.58021 3.5495,-3.53711 0,-0.004 0,-0.008 0,-0.0125 z M 227.08968,275.51259 c 0.003,-1.9569 -1.5804,-3.546 -3.5373,-3.5493 -1.9569,-0.003 -3.546,1.5804 -3.5493,3.5373 0,0.004 0,0.008 0,0.012 -0.003,1.9569 1.5804,3.546 3.5374,3.5493 1.9568,0.003 3.5459,-1.5805 3.5492,-3.5374 0,-0.004 0,-0.008 0,-0.0119 z m -212.400395,0 c 0.003,-1.9569 -1.5802,-3.5461 -3.5371,-3.5495 -1.9569001,-0.003 -3.5461,1.5802 -3.5495,3.5371 0,0.004 0,0.008 0,0.0124 -0.003,1.9569 1.5801999,3.5461 3.5371,3.5495 1.9569,0.003 3.5461,-1.5802 3.5495,-3.5371 0,-0.004 0,-0.008 0,-0.0124 z"
     id="path6-5"
     inkscape:connector-curvature="0"
     style="fill:#014cb1;stroke-width:1" /></g><text
   style="font-size:4.40984011px;font-family:OCRA;fill:#ffffff"
   id="text162"
   font-size="4.40984"
   x="82.081902"
   y="7.4452">2.9&quot; Waveshare e-Ink display</text>


<line
   x1="2.9231999"
   y2="14.8019"
   x2="226.8604"
   y1="14.8019"
   id="line320"
   style="fill:none;stroke:#ffffff;stroke-width:0.36000001;stroke-linecap:round" /><line
   x1="226.8604"
   y2="118.833"
   x2="226.8604"
   y1="14.8019"
   id="line322"
   style="fill:none;stroke:#ffffff;stroke-width:0.36000001;stroke-linecap:round" /><line
   x1="226.8604"
   y2="118.833"
   x2="2.9231999"
   y1="118.833"
   id="line324"
   style="fill:none;stroke:#ffffff;stroke-width:0.36000001;stroke-linecap:round" /><line
   x1="2.9231999"
   y2="95.680702"
   x2="2.9231999"
   y1="118.833"
   id="line326"
   style="fill:none;stroke:#ffffff;stroke-width:0.36000001;stroke-linecap:round" /><circle
   style="fill:none;stroke:#9a916c;stroke-width:1.44000006"
   cy="126.009"
   cx="8.6843996"
   id="connector18pin"
   gorn="0.2.0.0.15"
   r="0" /><ellipse
   style="fill:none;stroke:#9a916c;stroke-width:1.35494781"
   cy="119.17567"
   cx="221.10446"
   id="connector19pin"
   gorn="0.2.0.0.16"
   rx="4.2643976"
   ry="3.7735856"
   inkscape:transform-center-x="-106.63396"
   inkscape:transform-center-y="44.769929" /><circle
   style="fill:none;stroke:#9a916c;stroke-width:1.44000006"
   cy="7.2090001"
   cx="8.6843996"
   id="connector20pin"
   gorn="0.2.0.0.17"
   r="0" /><circle
   style="fill:none;stroke:#9a916c;stroke-width:1.44000006"
   cy="7.2090001"
   cx="221.0844"
   id="connector21pin"
   gorn="0.2.0.0.18"
   r="0" /><rect
   style="fill:#fafafa"
   id="rect537"
   x="2.9231999"
   y="14.8155"
   width="224.0554"
   height="104.0311" /><path
   style="fill:#dcdcdc"
   inkscape:connector-curvature="0"
   id="path539"
   d="m 7.6532,34.8314 h 7.9288 c 2.7397,0 4.9606,2.004 4.9606,4.4761 v 76.7548 l 204.0997,0.4256 V 17.5723 L 7.6532,17.1466 Z" /><path
   style="fill:#f0e6f0;stroke-width:1.01766634"
   inkscape:connector-curvature="0"
   id="path541"
   d="m 221.9627,116.0834 c -63.4553,0.77466 -117.7406,1.07562 -118.054,1.07562 l -79.9643,-0.2206 c -0.313,0 -0.5669,-0.23726 -0.5669,-0.52973 V 36.83058 c 0,-2.264127 -1.9712,-4.10571 -4.394,-4.10571 h -7.9287 c -0.313,0 -0.5669,-0.237266 -0.5669,-0.53025 V 20.14945 c 0,-0.292984 0.2539,-0.53025 0.5669,-0.53025 l 92.854,0.220592 c 0.3135,0 54.5987,0.173574 118.054,-0.01564 V 116.0834 Z" /><rect
   style="fill:none;stroke:#000000;stroke-width:0.56690001;stroke-miterlimit:10"
   id="rect543"
   x="23.944201"
   stroke-miterlimit="10"
   y="20.2234"
   width="198.0186"
   height="92.945702" /><ellipse
   style="fill:#fafafa"
   id="ellipse545"
   rx="2.4802999"
   cy="25.9468"
   cx="17.4995"
   ry="2.2381001" /><rect
   style="fill:#dcdcdc"
   id="rect547"
   x="-80.005898"
   y="7.7503986"
   width="25.5777"
   height="2.8346"
   transform="rotate(-90)" /><rect
   style="fill:#e6aa50;stroke-width:1.27475786"
   id="rect553"
   x="37.491127"
   y="-2.9231999"
   width="58.189575"
   height="3.4015999"
   transform="rotate(90)" /><text
   y="64.131859"
   x="84.041092"
   font-size="5.85192"
   id="text561"
   style="font-size:6.0518589px;font-family:DroidSans;stroke-width:1.03416634"
   transform="scale(1.0341663,0.96696247)">2.9&quot; B/W Waveshare</text>


<text
   y="69.666969"
   x="61.29414"
   font-size="5.85192"
   id="text563"
   style="font-size:6.41192675px;font-family:DroidSans;stroke-width:1.09569609"
   transform="scale(0.9763431,1.0242301)"
   inkscape:transform-center-x="-3.389318"
   inkscape:transform-center-y="-7.0163977">eInk / ePaper Display 296x128 pixels </text>


<line
   style="fill:none;stroke:#ffffff;stroke-width:0.36000001;stroke-linecap:round"
   id="line575"
   y1="40.3046"
   x2="2.9231999"
   y2="14.8295"
   x1="2.9231999" /><text
   xml:space="preserve"
   style="font-style:normal;font-variant:normal;font-weight:normal;font-stretch:normal;font-size:4.00000048px;line-height:1.25;font-family:sans-serif;-inkscape-font-specification:'sans-serif, Normal';font-variant-ligatures:normal;font-variant-caps:normal;font-variant-numeric:normal;font-feature-settings:normal;text-align:start;letter-spacing:0px;word-spacing:0px;writing-mode:lr-tb;text-anchor:start;fill:#000000;fill-opacity:1;stroke:none;stroke-width:0.75000006"
   x="9.4665804"
   y="43.418919"
   id="text6912"><tspan
     sodipodi:role="line"
     id="tspan7001"
     style="font-style:normal;font-variant:normal;font-weight:normal;font-stretch:normal;font-size:6.00000048px;font-family:sans-serif;-inkscape-font-specification:'sans-serif, Normal';font-variant-ligatures:normal;font-variant-caps:normal;font-variant-numeric:normal;font-feature-settings:normal;text-align:start;writing-mode:lr-tb;text-anchor:start"
     x="9.4665804"
     y="43.418919">BUSY</tspan><tspan
     sodipodi:role="line"
     id="tspan7003"
     style="font-style:normal;font-variant:normal;font-weight:normal;font-stretch:normal;font-size:6.00000048px;font-family:sans-serif;-inkscape-font-specification:'sans-serif, Normal';font-variant-ligatures:normal;font-variant-caps:normal;font-variant-numeric:normal;font-feature-settings:normal;text-align:start;writing-mode:lr-tb;text-anchor:start"
     x="9.4665804"
     y="50.918919">RST</tspan><tspan
     sodipodi:role="line"
     id="tspan7005"
     style="font-style:normal;font-variant:normal;font-weight:normal;font-stretch:normal;font-size:6.00000048px;font-family:sans-serif;-inkscape-font-specification:'sans-serif, Normal';font-variant-ligatures:normal;font-variant-caps:normal;font-variant-numeric:normal;font-feature-settings:normal;text-align:start;writing-mode:lr-tb;text-anchor:start"
     x="9.4665804"
     y="58.418919">DC</tspan><tspan
     sodipodi:role="line"
     id="tspan7007"
     style="font-style:normal;font-variant:normal;font-weight:normal;font-stretch:normal;font-size:6.00000048px;font-family:sans-serif;-inkscape-font-specification:'sans-serif, Normal';font-variant-ligatures:normal;font-variant-caps:normal;font-variant-numeric:normal;font-feature-settings:normal;text-align:start;writing-mode:lr-tb;text-anchor:start"
     x="9.4665804"
     y="65.918922">CS</tspan><tspan
     sodipodi:role="line"
     id="tspan7009"
     style="font-style:normal;font-variant:normal;font-weight:normal;font-stretch:normal;font-size:6.00000048px;font-family:sans-serif;-inkscape-font-specification:'sans-serif, Normal';font-variant-ligatures:normal;font-variant-caps:normal;font-variant-numeric:normal;font-feature-settings:normal;text-align:start;writing-mode:lr-tb;text-anchor:start"
     x="9.4665804"
     y="73.418922">CLK</tspan><tspan
     sodipodi:role="line"
     id="tspan7011"
     style="font-style:normal;font-variant:normal;font-weight:normal;font-stretch:normal;font-size:6.00000048px;font-family:sans-serif;-inkscape-font-specification:'sans-serif, Normal';font-variant-ligatures:normal;font-variant-caps:normal;font-variant-numeric:normal;font-feature-settings:normal;text-align:start;writing-mode:lr-tb;text-anchor:start"
     x="9.4665804"
     y="80.918922">DIN</tspan><tspan
     sodipodi:role="line"
     id="tspan7013"
     style="font-style:normal;font-variant:normal;font-weight:normal;font-stretch:normal;font-size:6.00000048px;font-family:sans-serif;-inkscape-font-specification:'sans-serif, Normal';font-variant-ligatures:normal;font-variant-caps:normal;font-variant-numeric:normal;font-feature-settings:normal;text-align:start;writing-mode:lr-tb;text-anchor:start"
     x="9.4665804"
     y="88.418922">GND</tspan><tspan
     sodipodi:role="line"
     id="tspan7015"
     style="font-style:normal;font-variant:normal;font-weight:normal;font-stretch:normal;font-size:6.00000048px;font-family:sans-serif;-inkscape-font-specification:'sans-serif, Normal';font-variant-ligatures:normal;font-variant-caps:normal;font-variant-numeric:normal;font-feature-settings:normal;text-align:start;writing-mode:lr-tb;text-anchor:start"
     x="9.4665804"
     y="95.918922">VCC</tspan></text>


<circle
   style="fill:none;stroke:#9a916c;stroke-width:0.9587"
   cy="6.3333583"
   cx="-42.080997"
   id="connector8pin"
   gorn="0.2.0.0.13"
   transform="rotate(-90)"
   r="0" /><circle
   style="fill:none;stroke:#9a916c;stroke-width:0.9587"
   cy="6.2378459"
   cx="-92.385208"
   id="connector1pin"
   gorn="0.2.0.0.13"
   transform="rotate(-90)"
   r="0" /><circle
   style="fill:none;stroke:#9a916c;stroke-width:0.9587"
   cy="6.2378459"
   cx="-85.156708"
   id="connector2pin"
   gorn="0.2.0.0.13"
   transform="rotate(-90)"
   r="0" /><circle
   style="fill:none;stroke:#9a916c;stroke-width:0.9587"
   cy="6.2378459"
   cx="-77.994858"
   id="connector3pin"
   gorn="0.2.0.0.13"
   transform="rotate(-90)"
   r="0" /><circle
   style="fill:none;stroke:#9a916c;stroke-width:0.9587"
   cy="6.2378535"
   cx="-70.6092"
   id="connector4pin"
   gorn="0.2.0.0.13"
   transform="rotate(-90)"
   r="0" /><circle
   style="fill:none;stroke:#9a916c;stroke-width:0.9587"
   cy="6.2378459"
   cx="-63.671154"
   id="connector5pin"
   gorn="0.2.0.0.13"
   transform="rotate(-90)"
   r="0" /><circle
   style="fill:none;stroke:#9a916c;stroke-width:0.9587"
   cy="6.2378459"
   cx="-56.509304"
   id="connector6pin"
   gorn="0.2.0.0.13"
   transform="rotate(-90)"
   r="0" /><circle
   style="fill:none;stroke:#9a916c;stroke-width:0.9587"
   cy="6.2378459"
   cx="-49.347454"
   id="connector7pin"
   gorn="0.2.0.0.13"
   transform="rotate(-90)"
   r="0" /></g><g
     id="g10589"><circle
       style="fill:none;stroke:#9a916c;stroke-width:0.9587"
       id="connector10pin"
       gorn="0.1.0.0.7"
       r="1.8967"
       cy="5.5426278"
       cx="-91.998962"
       transform="rotate(-90)"
       inkscape:label="#connector1pin" /><circle
       style="fill:none;stroke:#9a916c;stroke-width:0.9587"
       id="connector11pin"
       gorn="0.1.0.0.8"
       r="1.8967"
       cy="5.5426278"
       cx="-84.798965"
       transform="rotate(-90)"
       inkscape:label="#connector2pin" /><circle
       style="fill:none;stroke:#9a916c;stroke-width:0.9587"
       id="connector12pin"
       gorn="0.1.0.0.9"
       r="1.8967"
       cy="5.5426278"
       cx="-77.598969"
       transform="rotate(-90)"
       inkscape:label="#connector3pin" /><circle
       style="fill:none;stroke:#9a916c;stroke-width:0.9587"
       id="connector13pin"
       gorn="0.1.0.0.10"
       r="1.8967"
       cy="5.5426278"
       cx="-70.398972"
       transform="rotate(-90)"
       inkscape:label="#connector4pin" /><circle
       style="fill:none;stroke:#9a916c;stroke-width:0.9587"
       id="connector14pin"
       gorn="0.1.0.0.11"
       r="1.8967"
       cy="5.5426278"
       cx="-63.198959"
       transform="rotate(-90)"
       inkscape:label="#connector5pin" /><circle
       style="fill:none;stroke:#9a916c;stroke-width:0.9587"
       id="connector15pin"
       gorn="0.1.0.0.12"
       r="1.8967"
       cy="5.5426278"
       cx="-55.998962"
       transform="rotate(-90)"
       inkscape:label="#connector6pin" /><circle
       style="fill:none;stroke:#9a916c;stroke-width:0.9587"
       id="connector16pin"
       gorn="0.1.0.0.13"
       r="1.8967"
       cy="5.5426278"
       cx="-48.798965"
       transform="rotate(-90)"
       inkscape:label="#connector7pin" /><circle
       style="fill:none;stroke:#9a916c;stroke-width:0.9587"
       id="connector17pin"
       gorn="0.1.0.0.14"
       r="1.8967"
       cy="5.5426278"
       cx="-41.598969"
       transform="rotate(-90)"
       inkscape:label="#connector8pin" /></g></g></svg>